<mxfile host="app.diagrams.net" agent="Mozilla/5.0 (Windows NT 10.0; Win64; x64) AppleWebKit/537.36 (KHTML, like Gecko) Chrome/133.0.0.0 Safari/537.36 Edg/133.0.0.0" version="26.0.15">
  <diagram name="第 1 页" id="aYK_Bk7RCNr8dX7fYUv7">
    <mxGraphModel dx="2433" dy="1102" grid="1" gridSize="10" guides="1" tooltips="1" connect="1" arrows="1" fold="1" page="1" pageScale="1" pageWidth="827" pageHeight="1169" math="0" shadow="0">
      <root>
        <mxCell id="0" />
        <mxCell id="1" parent="0" />
        <mxCell id="adt9ds-oe1mwyMSmmolC-1" value="" style="ellipse;whiteSpace=wrap;html=1;aspect=fixed;" vertex="1" parent="1">
          <mxGeometry x="390" y="210" width="80" height="80" as="geometry" />
        </mxCell>
        <mxCell id="adt9ds-oe1mwyMSmmolC-21" value="" style="ellipse;whiteSpace=wrap;html=1;aspect=fixed;" vertex="1" parent="1">
          <mxGeometry x="-70" y="410" width="80" height="80" as="geometry" />
        </mxCell>
        <mxCell id="adt9ds-oe1mwyMSmmolC-38" value="" style="group" vertex="1" connectable="0" parent="1">
          <mxGeometry x="850" y="410" width="80" height="80" as="geometry" />
        </mxCell>
        <mxCell id="adt9ds-oe1mwyMSmmolC-2" value="" style="ellipse;whiteSpace=wrap;html=1;aspect=fixed;container=0;flipH=0;direction=east;" vertex="1" parent="adt9ds-oe1mwyMSmmolC-38">
          <mxGeometry width="80" height="80" as="geometry" />
        </mxCell>
        <mxCell id="adt9ds-oe1mwyMSmmolC-37" value="" style="endArrow=classic;html=1;rounded=0;exitX=1;exitY=1;exitDx=0;exitDy=0;entryX=0;entryY=0;entryDx=0;entryDy=0;" edge="1" parent="adt9ds-oe1mwyMSmmolC-38" source="adt9ds-oe1mwyMSmmolC-1" target="adt9ds-oe1mwyMSmmolC-2">
          <mxGeometry width="50" height="50" relative="1" as="geometry">
            <mxPoint x="40" y="110" as="sourcePoint" />
            <mxPoint x="90" y="60" as="targetPoint" />
          </mxGeometry>
        </mxCell>
        <mxCell id="adt9ds-oe1mwyMSmmolC-39" value="" style="endArrow=classic;html=1;rounded=0;exitX=0;exitY=1;exitDx=0;exitDy=0;entryX=0.834;entryY=0.222;entryDx=0;entryDy=0;entryPerimeter=0;" edge="1" target="adt9ds-oe1mwyMSmmolC-40" parent="1" source="adt9ds-oe1mwyMSmmolC-1">
          <mxGeometry width="50" height="50" relative="1" as="geometry">
            <mxPoint x="199.99572875253807" y="278.2842712474617" as="sourcePoint" />
            <mxPoint x="180" y="470" as="targetPoint" />
          </mxGeometry>
        </mxCell>
        <mxCell id="adt9ds-oe1mwyMSmmolC-40" value="" style="ellipse;whiteSpace=wrap;html=1;aspect=fixed;container=0;flipH=0;direction=east;" vertex="1" parent="1">
          <mxGeometry x="-70" y="410" width="80" height="80" as="geometry" />
        </mxCell>
        <mxCell id="adt9ds-oe1mwyMSmmolC-47" value="" style="ellipse;whiteSpace=wrap;html=1;aspect=fixed;container=0;flipH=0;direction=east;" vertex="1" parent="1">
          <mxGeometry x="120" y="612" width="80" height="80" as="geometry" />
        </mxCell>
        <mxCell id="adt9ds-oe1mwyMSmmolC-48" value="" style="endArrow=classic;html=1;rounded=0;exitX=1;exitY=1;exitDx=0;exitDy=0;entryX=0;entryY=0;entryDx=0;entryDy=0;" edge="1" target="adt9ds-oe1mwyMSmmolC-47" parent="1">
          <mxGeometry width="50" height="50" relative="1" as="geometry">
            <mxPoint x="-2" y="480" as="sourcePoint" />
            <mxPoint x="320" y="672" as="targetPoint" />
          </mxGeometry>
        </mxCell>
        <mxCell id="adt9ds-oe1mwyMSmmolC-49" value="" style="endArrow=classic;html=1;rounded=0;exitX=0;exitY=1;exitDx=0;exitDy=0;entryX=1;entryY=0;entryDx=0;entryDy=0;" edge="1" target="adt9ds-oe1mwyMSmmolC-50" parent="1">
          <mxGeometry width="50" height="50" relative="1" as="geometry">
            <mxPoint x="-58" y="480" as="sourcePoint" />
            <mxPoint x="-280" y="672" as="targetPoint" />
          </mxGeometry>
        </mxCell>
        <mxCell id="adt9ds-oe1mwyMSmmolC-50" value="" style="ellipse;whiteSpace=wrap;html=1;aspect=fixed;container=0;flipH=0;direction=east;" vertex="1" parent="1">
          <mxGeometry x="-280" y="612" width="80" height="80" as="geometry" />
        </mxCell>
        <mxCell id="adt9ds-oe1mwyMSmmolC-52" value="" style="ellipse;whiteSpace=wrap;html=1;aspect=fixed;container=0;flipH=0;direction=east;" vertex="1" parent="1">
          <mxGeometry x="-150" y="812" width="80" height="80" as="geometry" />
        </mxCell>
        <mxCell id="adt9ds-oe1mwyMSmmolC-53" value="" style="ellipse;whiteSpace=wrap;html=1;aspect=fixed;container=0;flipH=0;direction=east;" vertex="1" parent="1">
          <mxGeometry x="-420" y="812" width="80" height="80" as="geometry" />
        </mxCell>
        <mxCell id="adt9ds-oe1mwyMSmmolC-54" value="" style="endArrow=classic;html=1;rounded=0;exitX=1;exitY=1;exitDx=0;exitDy=0;entryX=0;entryY=0;entryDx=0;entryDy=0;" edge="1" target="adt9ds-oe1mwyMSmmolC-52" parent="1">
          <mxGeometry width="50" height="50" relative="1" as="geometry">
            <mxPoint x="-212" y="680" as="sourcePoint" />
            <mxPoint x="110" y="872" as="targetPoint" />
          </mxGeometry>
        </mxCell>
        <mxCell id="adt9ds-oe1mwyMSmmolC-55" value="" style="endArrow=classic;html=1;rounded=0;exitX=0;exitY=1;exitDx=0;exitDy=0;entryX=1;entryY=0;entryDx=0;entryDy=0;" edge="1" target="adt9ds-oe1mwyMSmmolC-53" parent="1">
          <mxGeometry width="50" height="50" relative="1" as="geometry">
            <mxPoint x="-268" y="680" as="sourcePoint" />
            <mxPoint x="-490" y="872" as="targetPoint" />
          </mxGeometry>
        </mxCell>
        <mxCell id="adt9ds-oe1mwyMSmmolC-56" value="" style="endArrow=classic;html=1;rounded=0;exitX=1;exitY=1;exitDx=0;exitDy=0;entryX=0;entryY=0;entryDx=0;entryDy=0;" edge="1" target="adt9ds-oe1mwyMSmmolC-58" parent="1">
          <mxGeometry width="50" height="50" relative="1" as="geometry">
            <mxPoint x="188" y="680" as="sourcePoint" />
            <mxPoint x="510" y="872" as="targetPoint" />
          </mxGeometry>
        </mxCell>
        <mxCell id="adt9ds-oe1mwyMSmmolC-57" value="" style="endArrow=classic;html=1;rounded=0;exitX=0;exitY=1;exitDx=0;exitDy=0;entryX=1;entryY=0;entryDx=0;entryDy=0;" edge="1" target="adt9ds-oe1mwyMSmmolC-59" parent="1">
          <mxGeometry width="50" height="50" relative="1" as="geometry">
            <mxPoint x="132" y="680" as="sourcePoint" />
            <mxPoint x="-90" y="872" as="targetPoint" />
          </mxGeometry>
        </mxCell>
        <mxCell id="adt9ds-oe1mwyMSmmolC-58" value="" style="ellipse;whiteSpace=wrap;html=1;aspect=fixed;container=0;flipH=0;direction=east;" vertex="1" parent="1">
          <mxGeometry x="230" y="812" width="80" height="80" as="geometry" />
        </mxCell>
        <mxCell id="adt9ds-oe1mwyMSmmolC-59" value="" style="ellipse;whiteSpace=wrap;html=1;aspect=fixed;container=0;flipH=0;direction=east;" vertex="1" parent="1">
          <mxGeometry x="-10" y="812" width="80" height="80" as="geometry" />
        </mxCell>
        <mxCell id="adt9ds-oe1mwyMSmmolC-70" value="" style="ellipse;whiteSpace=wrap;html=1;aspect=fixed;container=0;flipH=0;direction=east;" vertex="1" parent="1">
          <mxGeometry x="1040" y="612" width="80" height="80" as="geometry" />
        </mxCell>
        <mxCell id="adt9ds-oe1mwyMSmmolC-71" value="" style="ellipse;whiteSpace=wrap;html=1;aspect=fixed;container=0;flipH=0;direction=east;" vertex="1" parent="1">
          <mxGeometry x="640" y="612" width="80" height="80" as="geometry" />
        </mxCell>
        <mxCell id="adt9ds-oe1mwyMSmmolC-72" value="" style="ellipse;whiteSpace=wrap;html=1;aspect=fixed;container=0;flipH=0;direction=east;" vertex="1" parent="1">
          <mxGeometry x="770" y="812" width="80" height="80" as="geometry" />
        </mxCell>
        <mxCell id="adt9ds-oe1mwyMSmmolC-73" value="" style="ellipse;whiteSpace=wrap;html=1;aspect=fixed;container=0;flipH=0;direction=east;" vertex="1" parent="1">
          <mxGeometry x="500" y="812" width="80" height="80" as="geometry" />
        </mxCell>
        <mxCell id="adt9ds-oe1mwyMSmmolC-74" value="" style="endArrow=classic;html=1;rounded=0;exitX=1;exitY=1;exitDx=0;exitDy=0;entryX=0;entryY=0;entryDx=0;entryDy=0;" edge="1" target="adt9ds-oe1mwyMSmmolC-72" parent="1">
          <mxGeometry width="50" height="50" relative="1" as="geometry">
            <mxPoint x="708" y="680" as="sourcePoint" />
            <mxPoint x="1030" y="872" as="targetPoint" />
          </mxGeometry>
        </mxCell>
        <mxCell id="adt9ds-oe1mwyMSmmolC-75" value="" style="endArrow=classic;html=1;rounded=0;exitX=0;exitY=1;exitDx=0;exitDy=0;entryX=1;entryY=0;entryDx=0;entryDy=0;" edge="1" target="adt9ds-oe1mwyMSmmolC-73" parent="1">
          <mxGeometry width="50" height="50" relative="1" as="geometry">
            <mxPoint x="652" y="680" as="sourcePoint" />
            <mxPoint x="430" y="872" as="targetPoint" />
          </mxGeometry>
        </mxCell>
        <mxCell id="adt9ds-oe1mwyMSmmolC-76" value="" style="endArrow=classic;html=1;rounded=0;exitX=1;exitY=1;exitDx=0;exitDy=0;entryX=0;entryY=0;entryDx=0;entryDy=0;" edge="1" target="adt9ds-oe1mwyMSmmolC-78" parent="1">
          <mxGeometry width="50" height="50" relative="1" as="geometry">
            <mxPoint x="1108" y="680" as="sourcePoint" />
            <mxPoint x="1430" y="872" as="targetPoint" />
          </mxGeometry>
        </mxCell>
        <mxCell id="adt9ds-oe1mwyMSmmolC-77" value="" style="endArrow=classic;html=1;rounded=0;exitX=0;exitY=1;exitDx=0;exitDy=0;entryX=1;entryY=0;entryDx=0;entryDy=0;" edge="1" target="adt9ds-oe1mwyMSmmolC-79" parent="1">
          <mxGeometry width="50" height="50" relative="1" as="geometry">
            <mxPoint x="1052" y="680" as="sourcePoint" />
            <mxPoint x="830" y="872" as="targetPoint" />
          </mxGeometry>
        </mxCell>
        <mxCell id="adt9ds-oe1mwyMSmmolC-78" value="" style="ellipse;whiteSpace=wrap;html=1;aspect=fixed;container=0;flipH=0;direction=east;" vertex="1" parent="1">
          <mxGeometry x="1150" y="812" width="80" height="80" as="geometry" />
        </mxCell>
        <mxCell id="adt9ds-oe1mwyMSmmolC-79" value="" style="ellipse;whiteSpace=wrap;html=1;aspect=fixed;container=0;flipH=0;direction=east;" vertex="1" parent="1">
          <mxGeometry x="910" y="812" width="80" height="80" as="geometry" />
        </mxCell>
        <mxCell id="adt9ds-oe1mwyMSmmolC-80" value="" style="endArrow=classic;html=1;rounded=0;exitX=1;exitY=1;exitDx=0;exitDy=0;entryX=0;entryY=0;entryDx=0;entryDy=0;" edge="1" target="adt9ds-oe1mwyMSmmolC-70" parent="1">
          <mxGeometry width="50" height="50" relative="1" as="geometry">
            <mxPoint x="918" y="480" as="sourcePoint" />
            <mxPoint x="1240" y="672" as="targetPoint" />
          </mxGeometry>
        </mxCell>
        <mxCell id="adt9ds-oe1mwyMSmmolC-81" value="" style="endArrow=classic;html=1;rounded=0;exitX=0;exitY=1;exitDx=0;exitDy=0;entryX=1;entryY=0;entryDx=0;entryDy=0;" edge="1" target="adt9ds-oe1mwyMSmmolC-71" parent="1">
          <mxGeometry width="50" height="50" relative="1" as="geometry">
            <mxPoint x="862" y="480" as="sourcePoint" />
            <mxPoint x="640" y="672" as="targetPoint" />
          </mxGeometry>
        </mxCell>
      </root>
    </mxGraphModel>
  </diagram>
</mxfile>
